<?xml version="1.0" encoding="UTF-8"?>
<svg xmlns="http://www.w3.org/2000/svg" xmlns:xlink="http://www.w3.org/1999/xlink" width="200px" height="200px" viewBox="0 0 200 200" version="1.1">
<g id="surface1">
<path style=" stroke:none;fill-rule:nonzero;fill:rgb(0%,0%,0%);fill-opacity:1;" d="M 62 69.132812 C 58.332031 69.867188 59.535156 70.464844 63.933594 70.132812 C 70.132812 69.734375 73.601562 71.066406 78 75.464844 L 81.332031 78.800781 L 81.332031 94.265625 C 81.332031 111.132812 80.867188 113.332031 77.332031 115.132812 C 75.867188 115.867188 76.464844 116 82 116 C 88.199219 116 88.265625 115.933594 86.199219 114.933594 C 82.332031 113 81.933594 111.199219 82.132812 94.535156 L 82.332031 79.667969 L 84.464844 83.132812 C 85.667969 85.066406 89.398438 92.734375 92.734375 100.132812 C 96.132812 107.601562 100 115.464844 101.398438 117.734375 C 104.464844 122.601562 110 127.933594 114.066406 130 C 117.464844 131.800781 126.667969 132.734375 126.667969 131.398438 C 126.667969 130.867188 126.132812 130.734375 125.332031 131 C 122.535156 131.867188 118.535156 130.601562 115.535156 127.800781 C 112 124.535156 108.933594 119.265625 105.398438 110.066406 L 102.734375 103.199219 L 107.800781 93.800781 C 110.535156 88.667969 113.132812 83.667969 113.535156 82.734375 C 114.199219 81.332031 114.398438 83.601562 114.535156 94.332031 C 114.734375 109.464844 114.464844 112.867188 112.601562 114.734375 C 111.332031 116 111.398438 116 118.398438 116 C 125.464844 116 125.464844 116 123.933594 114.734375 L 122.332031 113.464844 L 122.332031 79.867188 L 123.933594 78.601562 L 125.464844 77.332031 L 115.464844 77.332031 L 112.132812 83.464844 C 110.332031 86.867188 107.398438 92.464844 105.667969 95.867188 L 102.535156 102.132812 L 98.332031 93.535156 C 90.066406 76.667969 81.398438 69.535156 68.667969 69 C 65.933594 68.867188 62.933594 68.933594 62 69.132812 Z M 93.667969 89.933594 C 96.800781 95.601562 100.667969 104.398438 103 111 C 104 113.933594 105.132812 116.734375 105.464844 117.132812 C 105.933594 117.734375 105.933594 118 105.464844 118 C 104 118 100.332031 111.265625 94 96.667969 C 91.667969 91.265625 87.332031 82.667969 85.601562 80 C 85 79.066406 86.066406 80 87.867188 81.933594 C 89.734375 83.933594 92.332031 87.535156 93.667969 89.933594 Z M 119.398438 94.800781 C 119.398438 103 119.535156 110.332031 119.734375 111.199219 C 120 112.867188 118.199219 114.066406 117.398438 112.734375 C 117.132812 112.265625 116.800781 105.132812 116.734375 96.867188 C 116.601562 82.265625 116.867188 80 118.734375 80 C 119.066406 80 119.332031 86.667969 119.398438 94.800781 Z M 119.398438 94.800781 "/>
</g>
</svg>
